<svg xmlns="http://www.w3.org/2000/svg" xmlns:xlink="http://www.w3.org/1999/xlink" id="processonSvg1000" viewBox="76.0 294.0 771.0 544.75" width="771.0" height="544.75"><defs id="ProcessOnDefs1001"><marker id="ProcessOnMarker1024" markerUnits="userSpaceOnUse" orient="auto" markerWidth="16.23606797749979" markerHeight="10.550836550532098" viewBox="-1.0 -1.3763819204711736 16.23606797749979 10.550836550532098" refX="-1.0" refY="3.8990363547948754"><path id="ProcessOnPath1025" d="M12.0 3.8990363547948754L0.0 7.798072709589751V0.0Z" stroke="#323232" stroke-width="2.0" fill="#323232" transform="matrix(1.0,0.0,0.0,1.0,0.0,0.0)"/></marker><marker id="ProcessOnMarker1031" markerUnits="userSpaceOnUse" orient="auto" markerWidth="16.23606797749979" markerHeight="10.550836550532098" viewBox="-1.0 -1.3763819204711736 16.23606797749979 10.550836550532098" refX="-1.0" refY="3.8990363547948754"><path id="ProcessOnPath1032" d="M12.0 3.8990363547948754L0.0 7.798072709589751V0.0Z" stroke="#323232" stroke-width="2.0" fill="#323232" transform="matrix(1.0,0.0,0.0,1.0,0.0,0.0)"/></marker><marker id="ProcessOnMarker1038" markerUnits="userSpaceOnUse" orient="auto" markerWidth="16.23606797749979" markerHeight="10.550836550532098" viewBox="-1.0 -1.3763819204711736 16.23606797749979 10.550836550532098" refX="-1.0" refY="3.8990363547948754"><path id="ProcessOnPath1039" d="M12.0 3.8990363547948754L0.0 7.798072709589751V0.0Z" stroke="#323232" stroke-width="2.0" fill="#323232" transform="matrix(1.0,0.0,0.0,1.0,0.0,0.0)"/></marker><marker id="ProcessOnMarker1045" markerUnits="userSpaceOnUse" orient="auto" markerWidth="16.23606797749979" markerHeight="10.550836550532098" viewBox="-1.0 -1.3763819204711736 16.23606797749979 10.550836550532098" refX="-1.0" refY="3.8990363547948754"><path id="ProcessOnPath1046" d="M12.0 3.8990363547948754L0.0 7.798072709589751V0.0Z" stroke="#323232" stroke-width="2.0" fill="#323232" transform="matrix(1.0,0.0,0.0,1.0,0.0,0.0)"/></marker><marker id="ProcessOnMarker1052" markerUnits="userSpaceOnUse" orient="auto" markerWidth="16.23606797749979" markerHeight="10.550836550532098" viewBox="-1.0 -1.3763819204711736 16.23606797749979 10.550836550532098" refX="-1.0" refY="3.8990363547948754"><path id="ProcessOnPath1053" d="M12.0 3.8990363547948754L0.0 7.798072709589751V0.0Z" stroke="#323232" stroke-width="2.0" fill="#323232" transform="matrix(1.0,0.0,0.0,1.0,0.0,0.0)"/></marker><marker id="ProcessOnMarker1059" markerUnits="userSpaceOnUse" orient="auto" markerWidth="16.23606797749979" markerHeight="10.550836550532098" viewBox="-1.0 -1.3763819204711736 16.23606797749979 10.550836550532098" refX="-1.0" refY="3.8990363547948754"><path id="ProcessOnPath1060" d="M12.0 3.8990363547948754L0.0 7.798072709589751V0.0Z" stroke="#323232" stroke-width="2.0" fill="#323232" transform="matrix(1.0,0.0,0.0,1.0,0.0,0.0)"/></marker><marker id="ProcessOnMarker1066" markerUnits="userSpaceOnUse" orient="auto" markerWidth="16.23606797749979" markerHeight="10.550836550532098" viewBox="-1.0 -1.3763819204711736 16.23606797749979 10.550836550532098" refX="-1.0" refY="3.8990363547948754"><path id="ProcessOnPath1067" d="M12.0 3.8990363547948754L0.0 7.798072709589751V0.0Z" stroke="#323232" stroke-width="2.0" fill="#323232" transform="matrix(1.0,0.0,0.0,1.0,0.0,0.0)"/></marker><marker id="ProcessOnMarker1073" markerUnits="userSpaceOnUse" orient="auto" markerWidth="16.23606797749979" markerHeight="10.550836550532098" viewBox="-1.0 -1.3763819204711736 16.23606797749979 10.550836550532098" refX="-1.0" refY="3.8990363547948754"><path id="ProcessOnPath1074" d="M12.0 3.8990363547948754L0.0 7.798072709589751V0.0Z" stroke="#323232" stroke-width="2.0" fill="#323232" transform="matrix(1.0,0.0,0.0,1.0,0.0,0.0)"/></marker><marker id="ProcessOnMarker1080" markerUnits="userSpaceOnUse" orient="auto" markerWidth="16.23606797749979" markerHeight="10.550836550532098" viewBox="-1.0 -1.3763819204711736 16.23606797749979 10.550836550532098" refX="-1.0" refY="3.8990363547948754"><path id="ProcessOnPath1081" d="M12.0 3.8990363547948754L0.0 7.798072709589751V0.0Z" stroke="#323232" stroke-width="2.0" fill="#323232" transform="matrix(1.0,0.0,0.0,1.0,0.0,0.0)"/></marker><marker id="ProcessOnMarker1087" markerUnits="userSpaceOnUse" orient="auto" markerWidth="16.23606797749979" markerHeight="10.550836550532098" viewBox="-1.0 -1.3763819204711736 16.23606797749979 10.550836550532098" refX="-1.0" refY="3.8990363547948754"><path id="ProcessOnPath1088" d="M12.0 3.8990363547948754L0.0 7.798072709589751V0.0Z" stroke="#323232" stroke-width="2.0" fill="#323232" transform="matrix(1.0,0.0,0.0,1.0,0.0,0.0)"/></marker><marker id="ProcessOnMarker1094" markerUnits="userSpaceOnUse" orient="auto" markerWidth="16.23606797749979" markerHeight="10.550836550532098" viewBox="-1.0 -1.3763819204711736 16.23606797749979 10.550836550532098" refX="-1.0" refY="3.8990363547948754"><path id="ProcessOnPath1095" d="M12.0 3.8990363547948754L0.0 7.798072709589751V0.0Z" stroke="#323232" stroke-width="2.0" fill="#323232" transform="matrix(1.0,0.0,0.0,1.0,0.0,0.0)"/></marker></defs><g id="ProcessOnG1002"><path id="ProcessOnPath1003" d="M76.0 294.0H847.0V838.75H76.0V294.0Z" fill="none"/><g id="ProcessOnG1004"><g id="ProcessOnG1005" transform="matrix(1.0,0.0,0.0,1.0,116.0,314.0)" opacity="1.0"><g id="ProcessOnG1007" transform="matrix(1.3055555555555556,0.0,0.0,5.7,0.0,0.0)"> <g> <path fill="#1E3947" d="M33.279,80H2.716C1.197,80,0,78.795,0,77.283V2.718C0,1.197,1.197,0,2.716,0h30.563 C34.793,0,36,1.197,36,2.718v74.565C36,78.705,34.793,80,33.279,80z"/> <rect x="0.081" y="6.398" fill="#DCE9F7" width="35.919" height="0.884"/> <rect x="0.081" y="69.518" fill="#DCE9F7" width="35.918" height="0.884"/> <rect y="51.126" fill="#1A6684" width="36" height="0.481"/> <g> <rect x="5.2" y="11.68" fill="#236A8E" width="25.751" height="3.119"/> <rect x="5.2" y="15.608" fill="#236A8E" width="25.751" height="3.114"/> <rect x="5.833" y="12.877" fill="#DCE9F7" width="4.648" height="0.966"/> <rect x="5.833" y="16.72" fill="#DCE9F7" width="4.648" height="0.953"/> </g> <g> <rect x="5.2" y="20.642" fill="#236A8E" width="25.751" height="3.121"/> <rect x="5.2" y="24.557" fill="#236A8E" width="25.751" height="3.116"/> <rect x="5.833" y="21.841" fill="#DCE9F7" width="4.648" height="0.956"/> <rect x="5.833" y="25.687" fill="#DCE9F7" width="4.648" height="0.953"/> </g> <g> <rect x="5.2" y="31.277" fill="#236A8E" width="25.751" height="3.114"/> <rect x="5.2" y="35.201" fill="#236A8E" width="25.751" height="3.119"/> <rect x="5.833" y="32.483" fill="#DCE9F7" width="4.648" height="0.957"/> <rect x="5.833" y="36.318" fill="#DCE9F7" width="4.648" height="0.964"/> </g> <path opacity="0.62" fill="#FF466A" enable-background="new " d="M31.675,72.958c0.734,0,1.358,0.604,1.358,1.367 c0,0.744-0.624,1.349-1.358,1.349c-0.738,0-1.363-0.604-1.363-1.349C30.312,73.563,30.937,72.958,31.675,72.958z"/> <path opacity="0.62" fill="#43D190" enable-background="new " d="M26.629,72.958c0.759,0,1.364,0.604,1.364,1.367 c0,0.744-0.605,1.349-1.364,1.349c-0.746,0-1.352-0.604-1.352-1.349C25.277,73.563,25.883,72.958,26.629,72.958z"/> <g> <rect x="2.716" y="52.233" fill="#041323" width="1.36" height="16.405"/> <rect x="4.959" y="52.233" fill="#041323" width="1.358" height="16.405"/> <rect x="7.122" y="52.233" fill="#041323" width="1.358" height="16.405"/> <rect x="9.353" y="52.233" fill="#041323" width="1.363" height="16.405"/> <rect x="11.517" y="52.233" fill="#041323" width="1.358" height="16.405"/> <rect x="13.76" y="52.233" fill="#041323" width="1.358" height="16.405"/> <rect x="15.911" y="52.233" fill="#041323" width="1.366" height="16.405"/> <rect x="18.156" y="52.233" fill="#041323" width="1.376" height="16.405"/> <rect x="20.38" y="52.233" fill="#041323" width="1.377" height="16.405"/> <rect x="22.562" y="52.233" fill="#041323" width="1.349" height="16.405"/> <rect x="24.795" y="52.233" fill="#041323" width="1.365" height="16.405"/> <rect x="26.941" y="52.233" fill="#041323" width="1.374" height="16.405"/> <rect x="29.2" y="52.233" fill="#041323" width="1.349" height="16.405"/> <rect x="31.434" y="52.233" fill="#041323" width="1.378" height="16.405"/> </g> </g>  </g><g id="ProcessOnG1008" transform="matrix(1.0,0.0,0.0,1.0,-20.0,462.875)"><text id="ProcessOnText1009" fill="#000000" font-size="13" x="42.5" y="13.325" font-family="微软雅黑" font-weight="normal" font-style="normal" text-decoration="none" family="微软雅黑" text-anchor="middle" size="13">Client Server</text></g></g><g id="ProcessOnG1010" transform="matrix(1.0,0.0,0.0,1.0,418.0,314.0)" opacity="1.0"><g id="ProcessOnG1012" transform="matrix(1.8055555555555556,0.0,0.0,5.7,0.0,0.0)"> <g> <path fill="#1E3947" d="M33.279,80H2.716C1.197,80,0,78.795,0,77.283V2.718C0,1.197,1.197,0,2.716,0h30.563 C34.793,0,36,1.197,36,2.718v74.565C36,78.705,34.793,80,33.279,80z"/> <rect x="0.081" y="6.398" fill="#DCE9F7" width="35.919" height="0.884"/> <rect x="0.081" y="69.518" fill="#DCE9F7" width="35.918" height="0.884"/> <rect y="51.126" fill="#1A6684" width="36" height="0.481"/> <g> <rect x="5.2" y="11.68" fill="#236A8E" width="25.751" height="3.119"/> <rect x="5.2" y="15.608" fill="#236A8E" width="25.751" height="3.114"/> <rect x="5.833" y="12.877" fill="#DCE9F7" width="4.648" height="0.966"/> <rect x="5.833" y="16.72" fill="#DCE9F7" width="4.648" height="0.953"/> </g> <g> <rect x="5.2" y="20.642" fill="#236A8E" width="25.751" height="3.121"/> <rect x="5.2" y="24.557" fill="#236A8E" width="25.751" height="3.116"/> <rect x="5.833" y="21.841" fill="#DCE9F7" width="4.648" height="0.956"/> <rect x="5.833" y="25.687" fill="#DCE9F7" width="4.648" height="0.953"/> </g> <g> <rect x="5.2" y="31.277" fill="#236A8E" width="25.751" height="3.114"/> <rect x="5.2" y="35.201" fill="#236A8E" width="25.751" height="3.119"/> <rect x="5.833" y="32.483" fill="#DCE9F7" width="4.648" height="0.957"/> <rect x="5.833" y="36.318" fill="#DCE9F7" width="4.648" height="0.964"/> </g> <path opacity="0.62" fill="#FF466A" enable-background="new " d="M31.675,72.958c0.734,0,1.358,0.604,1.358,1.367 c0,0.744-0.624,1.349-1.358,1.349c-0.738,0-1.363-0.604-1.363-1.349C30.312,73.563,30.937,72.958,31.675,72.958z"/> <path opacity="0.62" fill="#43D190" enable-background="new " d="M26.629,72.958c0.759,0,1.364,0.604,1.364,1.367 c0,0.744-0.605,1.349-1.364,1.349c-0.746,0-1.352-0.604-1.352-1.349C25.277,73.563,25.883,72.958,26.629,72.958z"/> <g> <rect x="2.716" y="52.233" fill="#041323" width="1.36" height="16.405"/> <rect x="4.959" y="52.233" fill="#041323" width="1.358" height="16.405"/> <rect x="7.122" y="52.233" fill="#041323" width="1.358" height="16.405"/> <rect x="9.353" y="52.233" fill="#041323" width="1.363" height="16.405"/> <rect x="11.517" y="52.233" fill="#041323" width="1.358" height="16.405"/> <rect x="13.76" y="52.233" fill="#041323" width="1.358" height="16.405"/> <rect x="15.911" y="52.233" fill="#041323" width="1.366" height="16.405"/> <rect x="18.156" y="52.233" fill="#041323" width="1.376" height="16.405"/> <rect x="20.38" y="52.233" fill="#041323" width="1.377" height="16.405"/> <rect x="22.562" y="52.233" fill="#041323" width="1.349" height="16.405"/> <rect x="24.795" y="52.233" fill="#041323" width="1.365" height="16.405"/> <rect x="26.941" y="52.233" fill="#041323" width="1.374" height="16.405"/> <rect x="29.2" y="52.233" fill="#041323" width="1.349" height="16.405"/> <rect x="31.434" y="52.233" fill="#041323" width="1.378" height="16.405"/> </g> </g>  </g><g id="ProcessOnG1013" transform="matrix(1.0,0.0,0.0,1.0,-20.0,456.0)"><text id="ProcessOnText1014" fill="#000000" font-size="13" x="51.5" y="13.325" font-family="微软雅黑" font-weight="normal" font-style="normal" text-decoration="none" family="微软雅黑" text-anchor="middle" size="13">Authorzation </text><text id="ProcessOnText1015" fill="#000000" font-size="13" x="51.5" y="29.575" font-family="微软雅黑" font-weight="normal" font-style="normal" text-decoration="none" family="微软雅黑" text-anchor="middle" size="13">Server</text><text id="ProcessOnText1016" fill="#000000" font-size="13" x="51.5" y="45.825" font-family="微软雅黑" font-weight="normal" font-style="normal" text-decoration="none" family="微软雅黑" text-anchor="middle" size="13"></text></g></g><g id="ProcessOnG1017" transform="matrix(1.0,0.0,0.0,1.0,728.0,314.0)" opacity="1.0"><g id="ProcessOnG1019" transform="matrix(2.25,0.0,0.0,5.7,0.0,0.0)"> <g> <path fill="#1E3947" d="M33.279,80H2.716C1.197,80,0,78.795,0,77.283V2.718C0,1.197,1.197,0,2.716,0h30.563 C34.793,0,36,1.197,36,2.718v74.565C36,78.705,34.793,80,33.279,80z"/> <rect x="0.081" y="6.398" fill="#DCE9F7" width="35.919" height="0.884"/> <rect x="0.081" y="69.518" fill="#DCE9F7" width="35.918" height="0.884"/> <rect y="51.126" fill="#1A6684" width="36" height="0.481"/> <g> <rect x="5.2" y="11.68" fill="#236A8E" width="25.751" height="3.119"/> <rect x="5.2" y="15.608" fill="#236A8E" width="25.751" height="3.114"/> <rect x="5.833" y="12.877" fill="#DCE9F7" width="4.648" height="0.966"/> <rect x="5.833" y="16.72" fill="#DCE9F7" width="4.648" height="0.953"/> </g> <g> <rect x="5.2" y="20.642" fill="#236A8E" width="25.751" height="3.121"/> <rect x="5.2" y="24.557" fill="#236A8E" width="25.751" height="3.116"/> <rect x="5.833" y="21.841" fill="#DCE9F7" width="4.648" height="0.956"/> <rect x="5.833" y="25.687" fill="#DCE9F7" width="4.648" height="0.953"/> </g> <g> <rect x="5.2" y="31.277" fill="#236A8E" width="25.751" height="3.114"/> <rect x="5.2" y="35.201" fill="#236A8E" width="25.751" height="3.119"/> <rect x="5.833" y="32.483" fill="#DCE9F7" width="4.648" height="0.957"/> <rect x="5.833" y="36.318" fill="#DCE9F7" width="4.648" height="0.964"/> </g> <path opacity="0.62" fill="#FF466A" enable-background="new " d="M31.675,72.958c0.734,0,1.358,0.604,1.358,1.367 c0,0.744-0.624,1.349-1.358,1.349c-0.738,0-1.363-0.604-1.363-1.349C30.312,73.563,30.937,72.958,31.675,72.958z"/> <path opacity="0.62" fill="#43D190" enable-background="new " d="M26.629,72.958c0.759,0,1.364,0.604,1.364,1.367 c0,0.744-0.605,1.349-1.364,1.349c-0.746,0-1.352-0.604-1.352-1.349C25.277,73.563,25.883,72.958,26.629,72.958z"/> <g> <rect x="2.716" y="52.233" fill="#041323" width="1.36" height="16.405"/> <rect x="4.959" y="52.233" fill="#041323" width="1.358" height="16.405"/> <rect x="7.122" y="52.233" fill="#041323" width="1.358" height="16.405"/> <rect x="9.353" y="52.233" fill="#041323" width="1.363" height="16.405"/> <rect x="11.517" y="52.233" fill="#041323" width="1.358" height="16.405"/> <rect x="13.76" y="52.233" fill="#041323" width="1.358" height="16.405"/> <rect x="15.911" y="52.233" fill="#041323" width="1.366" height="16.405"/> <rect x="18.156" y="52.233" fill="#041323" width="1.376" height="16.405"/> <rect x="20.38" y="52.233" fill="#041323" width="1.377" height="16.405"/> <rect x="22.562" y="52.233" fill="#041323" width="1.349" height="16.405"/> <rect x="24.795" y="52.233" fill="#041323" width="1.365" height="16.405"/> <rect x="26.941" y="52.233" fill="#041323" width="1.374" height="16.405"/> <rect x="29.2" y="52.233" fill="#041323" width="1.349" height="16.405"/> <rect x="31.434" y="52.233" fill="#041323" width="1.378" height="16.405"/> </g> </g>  </g><g id="ProcessOnG1020" transform="matrix(1.0,0.0,0.0,1.0,-20.0,462.875)"><text id="ProcessOnText1021" fill="#000000" font-size="13" x="59.5" y="13.325" font-family="微软雅黑" font-weight="normal" font-style="normal" text-decoration="none" family="微软雅黑" text-anchor="middle" size="13">Resource Server</text></g></g><g id="ProcessOnG1022"><path id="ProcessOnPath1023" d="M163.0 363.0L286.5 363.0L286.5 361.0L394.7639320225002 361.0" stroke="#323232" stroke-width="2.0" stroke-dasharray="none" fill="none" marker-end="url(#ProcessOnMarker1024)"/><g id="ProcessOnG1026" transform="matrix(1.0,0.0,0.0,1.0,279.88196601125014,354.875)"><path id="ProcessOnPath1027" d="M0 0H133.0V16.25H0Z" fill="#fff" transform="matrix(1.0,0.0,0.0,1.0,-66.5,0.0)"/><text id="ProcessOnText1028" fill="#000000" font-size="13" x="0.0" y="13.325" font-family="微软雅黑" font-weight="normal" font-style="normal" text-decoration="none" family="微软雅黑" text-anchor="middle" size="13">1.Authorization Grant</text></g></g><g id="ProcessOnG1029"><path id="ProcessOnPath1030" d="M418.0 402.258064516129L290.5 402.258064516129L290.5 402.258064516129L178.2360679774998 402.258064516129" stroke="#323232" stroke-width="2.0" stroke-dasharray="none" fill="none" marker-end="url(#ProcessOnMarker1031)"/><g id="ProcessOnG1033" transform="matrix(1.0,0.0,0.0,1.0,298.1180339887499,394.133064516129)"><path id="ProcessOnPath1034" d="M0 0H200.0V16.25H0Z" fill="#fff" transform="matrix(1.0,0.0,0.0,1.0,-100.0,0.0)"/><text id="ProcessOnText1035" fill="#000000" font-size="13" x="0.0" y="13.325" font-family="微软雅黑" font-weight="normal" font-style="normal" text-decoration="none" family="微软雅黑" text-anchor="middle" size="13">2.Access Token &amp; Refresh Token</text></g></g><g id="ProcessOnG1036"><path id="ProcessOnPath1037" d="M163.0 442.9925558312655L290.5 442.9925558312655L290.5 442.9925558312655L402.7639320225002 442.9925558312655" stroke="#323232" stroke-width="2.0" stroke-dasharray="none" fill="none" marker-end="url(#ProcessOnMarker1038)"/><g id="ProcessOnG1040" transform="matrix(1.0,0.0,0.0,1.0,282.88196601125014,434.8675558312655)"><path id="ProcessOnPath1041" d="M0 0H94.0V16.25H0Z" fill="#fff" transform="matrix(1.0,0.0,0.0,1.0,-47.0,0.0)"/><text id="ProcessOnText1042" fill="#000000" font-size="13" x="0.0" y="13.325" font-family="微软雅黑" font-weight="normal" font-style="normal" text-decoration="none" family="微软雅黑" text-anchor="middle" size="13">3.Access Token</text></g></g><g id="ProcessOnG1043"><path id="ProcessOnPath1044" d="M483.0 441.8610421836228L605.5 441.8610421836228L605.5 442.0L712.7639320225002 442.0" stroke="#323232" stroke-width="2.0" stroke-dasharray="none" fill="none" marker-end="url(#ProcessOnMarker1045)"/><g id="ProcessOnG1047" transform="matrix(1.0,0.0,0.0,1.0,597.9514449194387,433.7360421836228)"><path id="ProcessOnPath1048" d="M0 0H38.0V16.25H0Z" fill="#fff" transform="matrix(1.0,0.0,0.0,1.0,-19.0,0.0)"/><text id="ProcessOnText1049" fill="#000000" font-size="13" x="0.0" y="13.325" font-family="微软雅黑" font-weight="normal" font-style="normal" text-decoration="none" family="微软雅黑" text-anchor="middle" size="13">3.Pass</text></g></g><g id="ProcessOnG1050"><path id="ProcessOnPath1051" d="M728.0 482.0L445.5 482.0L445.5 479.0L178.2360679774998 479.0" stroke="#323232" stroke-width="2.0" stroke-dasharray="none" fill="none" marker-end="url(#ProcessOnMarker1052)"/><g id="ProcessOnG1054" transform="matrix(1.0,0.0,0.0,1.0,451.6180339887499,473.875)"><path id="ProcessOnPath1055" d="M0 0H134.99999999999994V16.25H0Z" fill="#fff" transform="matrix(1.0,0.0,0.0,1.0,-67.49999999999997,0.0)"/><text id="ProcessOnText1056" fill="#000000" font-size="13" x="0.0" y="13.325" font-family="微软雅黑" font-weight="normal" font-style="normal" text-decoration="none" family="微软雅黑" text-anchor="middle" size="13">4. Protected Resource</text></g></g><g id="ProcessOnG1057"><path id="ProcessOnPath1058" d="M163.0 518.0L290.5 518.0L290.5 518.0L402.7639320225002 518.0" stroke="#323232" stroke-width="2.0" stroke-dasharray="none" fill="none" marker-end="url(#ProcessOnMarker1059)"/><g id="ProcessOnG1061" transform="matrix(1.0,0.0,0.0,1.0,282.88196601125014,509.875)"><path id="ProcessOnPath1062" d="M0 0H98.0V16.25H0Z" fill="#fff" transform="matrix(1.0,0.0,0.0,1.0,-49.0,0.0)"/><text id="ProcessOnText1063" fill="#000000" font-size="13" x="0.0" y="13.325" font-family="微软雅黑" font-weight="normal" font-style="normal" text-decoration="none" family="微软雅黑" text-anchor="middle" size="13">5. Access Token</text></g></g><g id="ProcessOnG1064"><path id="ProcessOnPath1065" d="M418.0 560.0L290.5 560.0L290.5 558.0L178.2360679774998 558.0" stroke="#323232" stroke-width="2.0" stroke-dasharray="none" fill="none" marker-end="url(#ProcessOnMarker1066)"/><g id="ProcessOnG1068" transform="matrix(1.0,0.0,0.0,1.0,297.1180339887499,551.875)"><path id="ProcessOnPath1069" d="M0 0H126.0V16.25H0Z" fill="#fff" transform="matrix(1.0,0.0,0.0,1.0,-63.0,0.0)"/><text id="ProcessOnText1070" fill="#000000" font-size="13" x="0.0" y="13.325" font-family="微软雅黑" font-weight="normal" font-style="normal" text-decoration="none" family="微软雅黑" text-anchor="middle" size="13">6.Invalid Token Error</text></g></g><g id="ProcessOnG1071"><path id="ProcessOnPath1072" d="M163.0 604.0L290.5 604.0L290.5 604.0L402.7639320225002 604.0" stroke="#323232" stroke-width="2.0" stroke-dasharray="none" fill="none" marker-end="url(#ProcessOnMarker1073)"/><g id="ProcessOnG1075" transform="matrix(1.0,0.0,0.0,1.0,282.88196601125014,595.875)"><path id="ProcessOnPath1076" d="M0 0H98.0V16.25H0Z" fill="#fff" transform="matrix(1.0,0.0,0.0,1.0,-49.0,0.0)"/><text id="ProcessOnText1077" fill="#000000" font-size="13" x="0.0" y="13.325" font-family="微软雅黑" font-weight="normal" font-style="normal" text-decoration="none" family="微软雅黑" text-anchor="middle" size="13">7.Refresh Token</text></g></g><g id="ProcessOnG1078"><path id="ProcessOnPath1079" d="M418.0 648.0L290.5 648.0L290.5 645.0L178.2360679774998 645.0" stroke="#323232" stroke-width="2.0" stroke-dasharray="none" fill="none" marker-end="url(#ProcessOnMarker1080)"/><g id="ProcessOnG1082" transform="matrix(1.0,0.0,0.0,1.0,296.6180339887499,639.875)"><path id="ProcessOnPath1083" d="M0 0H200.0V16.25H0Z" fill="#fff" transform="matrix(1.0,0.0,0.0,1.0,-100.0,0.0)"/><text id="ProcessOnText1084" fill="#000000" font-size="13" x="0.0" y="13.325" font-family="微软雅黑" font-weight="normal" font-style="normal" text-decoration="none" family="微软雅黑" text-anchor="middle" size="13">8.Access Token &amp; Refresh Token</text></g></g><g id="ProcessOnG1085"><path id="ProcessOnPath1086" d="M163.0 687.0L445.5 687.0L445.5 687.0L712.7639320225002 687.0" stroke="#323232" stroke-width="2.0" stroke-dasharray="none" fill="none" marker-end="url(#ProcessOnMarker1087)"/><g id="ProcessOnG1089" transform="matrix(1.0,0.0,0.0,1.0,437.8819660112501,678.875)"><path id="ProcessOnPath1090" d="M0 0H84.0V16.25H0Z" fill="#fff" transform="matrix(1.0,0.0,0.0,1.0,-42.0,0.0)"/><text id="ProcessOnText1091" fill="#000000" font-size="13" x="0.0" y="13.325" font-family="微软雅黑" font-weight="normal" font-style="normal" text-decoration="none" family="微软雅黑" text-anchor="middle" size="13">9.Repeat 3 .....</text></g></g><g id="ProcessOnG1092"><path id="ProcessOnPath1093" d="M163.0 728.6377171215881L445.5 728.6377171215881L445.5 728.6377171215881L712.7639320225002 728.6377171215881" stroke="#323232" stroke-width="2.0" stroke-dasharray="none" fill="none" marker-end="url(#ProcessOnMarker1094)"/><g id="ProcessOnG1096" transform="matrix(1.0,0.0,0.0,1.0,437.8819660112501,720.5127171215881)"><path id="ProcessOnPath1097" d="M0 0H120.0V16.25H0Z" fill="#fff" transform="matrix(1.0,0.0,0.0,1.0,-60.0,0.0)"/><text id="ProcessOnText1098" fill="#000000" font-size="13" x="0.0" y="13.325" font-family="微软雅黑" font-weight="normal" font-style="normal" text-decoration="none" family="微软雅黑" text-anchor="middle" size="13">10. Public Resource</text></g></g></g></g></svg>